<?xml version="1.0" standalone="no"?>
<!DOCTYPE svg PUBLIC "-//W3C//DTD SVG 20010904//EN"
 "http://www.w3.org/TR/2001/REC-SVG-20010904/DTD/svg10.dtd">
<svg version="1.0" xmlns="http://www.w3.org/2000/svg"
 width="170.000000pt" height="51.000000pt" viewBox="0 0 170.000000 51.000000"
 preserveAspectRatio="xMidYMid meet">

<g transform="translate(0.000000,51.000000) scale(0.100000,-0.100000)"
fill="#000000" stroke="none">
<path d="M1310 489 c-9 -15 -8 -24 1 -35 15 -18 28 -18 50 2 17 15 22 15 65 0
71 -24 128 -61 173 -112 36 -42 40 -51 35 -84 -5 -29 -3 -38 11 -44 35 -13 63
43 31 61 -8 4 -33 32 -56 61 -49 62 -113 106 -190 129 -30 9 -62 23 -71 30
-22 18 -37 16 -49 -8z"/>
<path d="M667 310 c-89 -11 -91 -64 -6 -157 44 -48 51 -88 19 -98 -29 -9 -50
11 -50 47 0 26 -2 29 -15 18 -21 -18 -19 -57 4 -70 31 -16 79 -12 101 10 32
32 25 63 -30 127 -49 57 -63 97 -37 106 19 7 45 -11 61 -41 l15 -27 1 42 c0
23 -3 43 -7 45 -5 2 -30 1 -56 -2z"/>
<path d="M53 300 c-12 -5 -26 -18 -32 -29 -17 -30 -13 -102 8 -148 22 -47 52
-70 102 -78 l34 -6 -35 20 c-43 24 -68 65 -76 124 -8 57 1 93 25 107 26 13 48
3 66 -29 l14 -26 1 38 0 37 -42 -1 c-24 0 -53 -4 -65 -9z"/>
<path d="M256 275 c-34 -44 -53 -103 -59 -177 -3 -54 -2 -58 18 -58 21 0 22 2
12 38 -14 51 -2 112 22 112 10 0 28 -11 40 -24 23 -25 46 -100 36 -117 -4 -5
7 -9 23 -9 l28 0 -17 68 c-9 37 -20 98 -24 135 -7 61 -9 67 -30 67 -14 0 -33
-13 -49 -35z m44 -52 c0 -24 -23 -31 -48 -15 -10 7 -8 15 9 36 24 30 39 22 39
-21z"/>
<path d="M397 303 c-4 -3 -7 -17 -7 -30 l0 -24 25 28 c21 24 26 26 35 13 13
-20 13 -206 0 -231 -10 -17 -7 -19 24 -19 34 0 35 1 26 26 -15 39 -13 197 4
219 13 18 15 18 41 -11 28 -29 28 -29 22 -4 -4 14 -7 28 -7 33 0 9 -154 10
-163 0z"/>
<path d="M785 175 l0 -135 27 0 c25 0 26 1 17 35 -14 50 -7 126 12 138 9 5 28
7 42 3 26 -6 27 -9 27 -72 0 -36 -5 -74 -10 -85 -9 -17 -7 -19 17 -19 l28 0 0
135 0 135 -24 0 c-20 0 -22 -4 -17 -26 8 -31 -8 -54 -39 -54 -33 0 -48 22 -35
54 9 24 8 26 -18 26 l-27 0 0 -135z"/>
<path d="M1170 268 c0 -29 -26 -44 -60 -33 -18 6 -20 2 -20 -32 0 -74 55 -106
114 -67 47 30 44 64 -13 134 l-21 25 0 -27z"/>
<path d="M1308 118 c-9 -18 -18 -50 -21 -71 -6 -36 -5 -37 28 -37 31 0 33 2
31 32 -1 32 -1 32 44 29 57 -4 63 -8 56 -37 -6 -22 -3 -24 28 -24 l34 0 -8 38
c-5 20 -11 49 -14 63 -6 25 -9 27 -63 25 -32 0 -68 2 -79 7 -18 6 -24 2 -36
-25z"/>
</g>
</svg>
